M48
METRIC
T1C1.000
T2C1.200
T3C1.500
T4C2.000
%
G90
G05
T1
X102.38Y-55.75
X102.38Y-58.29
X102.38Y-60.83
X102.38Y-63.37
X102.38Y-65.91
X102.38Y-68.45
X102.38Y-70.99
X103.0Y-90.57
X103.0Y-93.11
X103.015Y-27.57
X103.015Y-30.11
X103.015Y-32.65
X103.015Y-35.19
X109.0Y-90.57
X109.0Y-93.11
X110.0Y-55.75
X110.0Y-58.29
X110.0Y-60.83
X110.0Y-63.37
X110.0Y-65.91
X110.0Y-68.45
X110.0Y-70.99
X115.6Y-40.44
X115.6Y-42.98
X115.6Y-45.52
X115.6Y-48.06
X115.6Y-50.6
X115.6Y-53.14
X115.6Y-55.68
X115.6Y-58.22
X115.6Y-60.76
X115.6Y-63.3
X115.6Y-65.84
X115.6Y-68.38
X115.6Y-70.92
X115.6Y-73.46
X115.6Y-76.0
X115.6Y-78.54
X115.6Y-81.08
X115.6Y-83.62
X115.6Y-86.16
X121.1Y-28.03
X121.1Y-30.57
X121.1Y-33.11
X121.1Y-35.65
X136.7Y-28.11
X136.7Y-30.65
X136.7Y-33.19
X136.7Y-35.73
X141.0Y-40.44
X141.0Y-42.98
X141.0Y-45.52
X141.0Y-48.06
X141.0Y-50.6
X141.0Y-53.14
X141.0Y-55.68
X141.0Y-58.22
X141.0Y-60.76
X141.0Y-63.3
X141.0Y-65.84
X141.0Y-68.38
X141.0Y-70.92
X141.0Y-73.46
X141.0Y-76.0
X141.0Y-78.54
X141.0Y-81.08
X141.0Y-83.62
X141.0Y-86.16
X150.56Y-79.84
X150.56Y-82.38
X150.56Y-84.92
X150.56Y-87.46
X150.56Y-90.0
X153.1Y-79.84
X153.1Y-82.38
X153.1Y-84.92
X153.1Y-87.46
X153.1Y-90.0
T2
X148.375Y-60.51
X150.875Y-50.51
X153.375Y-60.51
T3
X147.46Y-40.15
X152.54Y-40.15
T4
X104.7Y-80.2
X111.7Y-47.2
X148.7Y-72.2
M30
