%TF.GenerationSoftware,KiCad,Pcbnew,8.0.4*%
%TF.CreationDate,2025-05-09T12:29:35+02:00*%
%TF.ProjectId,carte_mere,63617274-655f-46d6-9572-652e6b696361,rev?*%
%TF.SameCoordinates,Original*%
%TF.FileFunction,Legend,Bot*%
%TF.FilePolarity,Positive*%
%FSLAX46Y46*%
G04 Gerber Fmt 4.6, Leading zero omitted, Abs format (unit mm)*
G04 Created by KiCad (PCBNEW 8.0.4) date 2025-05-09 12:29:35*
%MOMM*%
%LPD*%
G01*
G04 APERTURE LIST*
%ADD10C,0.300000*%
%ADD11C,0.200000*%
G04 APERTURE END LIST*
D10*
X160621185Y-91628569D02*
X160549757Y-91557141D01*
X160549757Y-91557141D02*
X160478328Y-91414284D01*
X160478328Y-91414284D02*
X160478328Y-91057141D01*
X160478328Y-91057141D02*
X160549757Y-90914284D01*
X160549757Y-90914284D02*
X160621185Y-90842855D01*
X160621185Y-90842855D02*
X160764042Y-90771426D01*
X160764042Y-90771426D02*
X160906900Y-90771426D01*
X160906900Y-90771426D02*
X161121185Y-90842855D01*
X161121185Y-90842855D02*
X161978328Y-91699998D01*
X161978328Y-91699998D02*
X161978328Y-90771426D01*
X160478328Y-89414284D02*
X160478328Y-90128570D01*
X160478328Y-90128570D02*
X161192614Y-90199998D01*
X161192614Y-90199998D02*
X161121185Y-90128570D01*
X161121185Y-90128570D02*
X161049757Y-89985713D01*
X161049757Y-89985713D02*
X161049757Y-89628570D01*
X161049757Y-89628570D02*
X161121185Y-89485713D01*
X161121185Y-89485713D02*
X161192614Y-89414284D01*
X161192614Y-89414284D02*
X161335471Y-89342855D01*
X161335471Y-89342855D02*
X161692614Y-89342855D01*
X161692614Y-89342855D02*
X161835471Y-89414284D01*
X161835471Y-89414284D02*
X161906900Y-89485713D01*
X161906900Y-89485713D02*
X161978328Y-89628570D01*
X161978328Y-89628570D02*
X161978328Y-89985713D01*
X161978328Y-89985713D02*
X161906900Y-90128570D01*
X161906900Y-90128570D02*
X161835471Y-90199998D01*
X161906900Y-88628570D02*
X161978328Y-88628570D01*
X161978328Y-88628570D02*
X162121185Y-88699999D01*
X162121185Y-88699999D02*
X162192614Y-88771427D01*
X160478328Y-87699998D02*
X160478328Y-87557141D01*
X160478328Y-87557141D02*
X160549757Y-87414284D01*
X160549757Y-87414284D02*
X160621185Y-87342856D01*
X160621185Y-87342856D02*
X160764042Y-87271427D01*
X160764042Y-87271427D02*
X161049757Y-87199998D01*
X161049757Y-87199998D02*
X161406900Y-87199998D01*
X161406900Y-87199998D02*
X161692614Y-87271427D01*
X161692614Y-87271427D02*
X161835471Y-87342856D01*
X161835471Y-87342856D02*
X161906900Y-87414284D01*
X161906900Y-87414284D02*
X161978328Y-87557141D01*
X161978328Y-87557141D02*
X161978328Y-87699998D01*
X161978328Y-87699998D02*
X161906900Y-87842856D01*
X161906900Y-87842856D02*
X161835471Y-87914284D01*
X161835471Y-87914284D02*
X161692614Y-87985713D01*
X161692614Y-87985713D02*
X161406900Y-88057141D01*
X161406900Y-88057141D02*
X161049757Y-88057141D01*
X161049757Y-88057141D02*
X160764042Y-87985713D01*
X160764042Y-87985713D02*
X160621185Y-87914284D01*
X160621185Y-87914284D02*
X160549757Y-87842856D01*
X160549757Y-87842856D02*
X160478328Y-87699998D01*
X160478328Y-86271427D02*
X160478328Y-86128570D01*
X160478328Y-86128570D02*
X160549757Y-85985713D01*
X160549757Y-85985713D02*
X160621185Y-85914285D01*
X160621185Y-85914285D02*
X160764042Y-85842856D01*
X160764042Y-85842856D02*
X161049757Y-85771427D01*
X161049757Y-85771427D02*
X161406900Y-85771427D01*
X161406900Y-85771427D02*
X161692614Y-85842856D01*
X161692614Y-85842856D02*
X161835471Y-85914285D01*
X161835471Y-85914285D02*
X161906900Y-85985713D01*
X161906900Y-85985713D02*
X161978328Y-86128570D01*
X161978328Y-86128570D02*
X161978328Y-86271427D01*
X161978328Y-86271427D02*
X161906900Y-86414285D01*
X161906900Y-86414285D02*
X161835471Y-86485713D01*
X161835471Y-86485713D02*
X161692614Y-86557142D01*
X161692614Y-86557142D02*
X161406900Y-86628570D01*
X161406900Y-86628570D02*
X161049757Y-86628570D01*
X161049757Y-86628570D02*
X160764042Y-86557142D01*
X160764042Y-86557142D02*
X160621185Y-86485713D01*
X160621185Y-86485713D02*
X160549757Y-86414285D01*
X160549757Y-86414285D02*
X160478328Y-86271427D01*
X160478328Y-84842856D02*
X160478328Y-84699999D01*
X160478328Y-84699999D02*
X160549757Y-84557142D01*
X160549757Y-84557142D02*
X160621185Y-84485714D01*
X160621185Y-84485714D02*
X160764042Y-84414285D01*
X160764042Y-84414285D02*
X161049757Y-84342856D01*
X161049757Y-84342856D02*
X161406900Y-84342856D01*
X161406900Y-84342856D02*
X161692614Y-84414285D01*
X161692614Y-84414285D02*
X161835471Y-84485714D01*
X161835471Y-84485714D02*
X161906900Y-84557142D01*
X161906900Y-84557142D02*
X161978328Y-84699999D01*
X161978328Y-84699999D02*
X161978328Y-84842856D01*
X161978328Y-84842856D02*
X161906900Y-84985714D01*
X161906900Y-84985714D02*
X161835471Y-85057142D01*
X161835471Y-85057142D02*
X161692614Y-85128571D01*
X161692614Y-85128571D02*
X161406900Y-85199999D01*
X161406900Y-85199999D02*
X161049757Y-85199999D01*
X161049757Y-85199999D02*
X160764042Y-85128571D01*
X160764042Y-85128571D02*
X160621185Y-85057142D01*
X160621185Y-85057142D02*
X160549757Y-84985714D01*
X160549757Y-84985714D02*
X160478328Y-84842856D01*
X160478328Y-83414285D02*
X160478328Y-83271428D01*
X160478328Y-83271428D02*
X160549757Y-83128571D01*
X160549757Y-83128571D02*
X160621185Y-83057143D01*
X160621185Y-83057143D02*
X160764042Y-82985714D01*
X160764042Y-82985714D02*
X161049757Y-82914285D01*
X161049757Y-82914285D02*
X161406900Y-82914285D01*
X161406900Y-82914285D02*
X161692614Y-82985714D01*
X161692614Y-82985714D02*
X161835471Y-83057143D01*
X161835471Y-83057143D02*
X161906900Y-83128571D01*
X161906900Y-83128571D02*
X161978328Y-83271428D01*
X161978328Y-83271428D02*
X161978328Y-83414285D01*
X161978328Y-83414285D02*
X161906900Y-83557143D01*
X161906900Y-83557143D02*
X161835471Y-83628571D01*
X161835471Y-83628571D02*
X161692614Y-83700000D01*
X161692614Y-83700000D02*
X161406900Y-83771428D01*
X161406900Y-83771428D02*
X161049757Y-83771428D01*
X161049757Y-83771428D02*
X160764042Y-83700000D01*
X160764042Y-83700000D02*
X160621185Y-83628571D01*
X160621185Y-83628571D02*
X160549757Y-83557143D01*
X160549757Y-83557143D02*
X160478328Y-83414285D01*
X161978328Y-81128572D02*
X160978328Y-81128572D01*
X161121185Y-81128572D02*
X161049757Y-81057143D01*
X161049757Y-81057143D02*
X160978328Y-80914286D01*
X160978328Y-80914286D02*
X160978328Y-80700000D01*
X160978328Y-80700000D02*
X161049757Y-80557143D01*
X161049757Y-80557143D02*
X161192614Y-80485715D01*
X161192614Y-80485715D02*
X161978328Y-80485715D01*
X161192614Y-80485715D02*
X161049757Y-80414286D01*
X161049757Y-80414286D02*
X160978328Y-80271429D01*
X160978328Y-80271429D02*
X160978328Y-80057143D01*
X160978328Y-80057143D02*
X161049757Y-79914286D01*
X161049757Y-79914286D02*
X161192614Y-79842857D01*
X161192614Y-79842857D02*
X161978328Y-79842857D01*
X161978328Y-79128572D02*
X160978328Y-79128572D01*
X161121185Y-79128572D02*
X161049757Y-79057143D01*
X161049757Y-79057143D02*
X160978328Y-78914286D01*
X160978328Y-78914286D02*
X160978328Y-78700000D01*
X160978328Y-78700000D02*
X161049757Y-78557143D01*
X161049757Y-78557143D02*
X161192614Y-78485715D01*
X161192614Y-78485715D02*
X161978328Y-78485715D01*
X161192614Y-78485715D02*
X161049757Y-78414286D01*
X161049757Y-78414286D02*
X160978328Y-78271429D01*
X160978328Y-78271429D02*
X160978328Y-78057143D01*
X160978328Y-78057143D02*
X161049757Y-77914286D01*
X161049757Y-77914286D02*
X161192614Y-77842857D01*
X161192614Y-77842857D02*
X161978328Y-77842857D01*
D11*
X159200000Y-97200000D02*
X163686420Y-97200000D01*
X159200000Y-72200000D02*
X163686420Y-72200000D01*
X163100000Y-97200000D02*
X163100000Y-72200000D01*
X163100000Y-97200000D02*
X163100000Y-72200000D01*
X163100000Y-97200000D02*
X162513579Y-96073496D01*
X163100000Y-97200000D02*
X163686421Y-96073496D01*
X163100000Y-72200000D02*
X163686421Y-73326504D01*
X163100000Y-72200000D02*
X162513579Y-73326504D01*
D10*
X85278328Y-78342855D02*
X85278328Y-79057141D01*
X85278328Y-79057141D02*
X85992614Y-79128569D01*
X85992614Y-79128569D02*
X85921185Y-79057141D01*
X85921185Y-79057141D02*
X85849757Y-78914284D01*
X85849757Y-78914284D02*
X85849757Y-78557141D01*
X85849757Y-78557141D02*
X85921185Y-78414284D01*
X85921185Y-78414284D02*
X85992614Y-78342855D01*
X85992614Y-78342855D02*
X86135471Y-78271426D01*
X86135471Y-78271426D02*
X86492614Y-78271426D01*
X86492614Y-78271426D02*
X86635471Y-78342855D01*
X86635471Y-78342855D02*
X86706900Y-78414284D01*
X86706900Y-78414284D02*
X86778328Y-78557141D01*
X86778328Y-78557141D02*
X86778328Y-78914284D01*
X86778328Y-78914284D02*
X86706900Y-79057141D01*
X86706900Y-79057141D02*
X86635471Y-79128569D01*
X85278328Y-77342855D02*
X85278328Y-77199998D01*
X85278328Y-77199998D02*
X85349757Y-77057141D01*
X85349757Y-77057141D02*
X85421185Y-76985713D01*
X85421185Y-76985713D02*
X85564042Y-76914284D01*
X85564042Y-76914284D02*
X85849757Y-76842855D01*
X85849757Y-76842855D02*
X86206900Y-76842855D01*
X86206900Y-76842855D02*
X86492614Y-76914284D01*
X86492614Y-76914284D02*
X86635471Y-76985713D01*
X86635471Y-76985713D02*
X86706900Y-77057141D01*
X86706900Y-77057141D02*
X86778328Y-77199998D01*
X86778328Y-77199998D02*
X86778328Y-77342855D01*
X86778328Y-77342855D02*
X86706900Y-77485713D01*
X86706900Y-77485713D02*
X86635471Y-77557141D01*
X86635471Y-77557141D02*
X86492614Y-77628570D01*
X86492614Y-77628570D02*
X86206900Y-77699998D01*
X86206900Y-77699998D02*
X85849757Y-77699998D01*
X85849757Y-77699998D02*
X85564042Y-77628570D01*
X85564042Y-77628570D02*
X85421185Y-77557141D01*
X85421185Y-77557141D02*
X85349757Y-77485713D01*
X85349757Y-77485713D02*
X85278328Y-77342855D01*
X86706900Y-76128570D02*
X86778328Y-76128570D01*
X86778328Y-76128570D02*
X86921185Y-76199999D01*
X86921185Y-76199999D02*
X86992614Y-76271427D01*
X85278328Y-75199998D02*
X85278328Y-75057141D01*
X85278328Y-75057141D02*
X85349757Y-74914284D01*
X85349757Y-74914284D02*
X85421185Y-74842856D01*
X85421185Y-74842856D02*
X85564042Y-74771427D01*
X85564042Y-74771427D02*
X85849757Y-74699998D01*
X85849757Y-74699998D02*
X86206900Y-74699998D01*
X86206900Y-74699998D02*
X86492614Y-74771427D01*
X86492614Y-74771427D02*
X86635471Y-74842856D01*
X86635471Y-74842856D02*
X86706900Y-74914284D01*
X86706900Y-74914284D02*
X86778328Y-75057141D01*
X86778328Y-75057141D02*
X86778328Y-75199998D01*
X86778328Y-75199998D02*
X86706900Y-75342856D01*
X86706900Y-75342856D02*
X86635471Y-75414284D01*
X86635471Y-75414284D02*
X86492614Y-75485713D01*
X86492614Y-75485713D02*
X86206900Y-75557141D01*
X86206900Y-75557141D02*
X85849757Y-75557141D01*
X85849757Y-75557141D02*
X85564042Y-75485713D01*
X85564042Y-75485713D02*
X85421185Y-75414284D01*
X85421185Y-75414284D02*
X85349757Y-75342856D01*
X85349757Y-75342856D02*
X85278328Y-75199998D01*
X85278328Y-73771427D02*
X85278328Y-73628570D01*
X85278328Y-73628570D02*
X85349757Y-73485713D01*
X85349757Y-73485713D02*
X85421185Y-73414285D01*
X85421185Y-73414285D02*
X85564042Y-73342856D01*
X85564042Y-73342856D02*
X85849757Y-73271427D01*
X85849757Y-73271427D02*
X86206900Y-73271427D01*
X86206900Y-73271427D02*
X86492614Y-73342856D01*
X86492614Y-73342856D02*
X86635471Y-73414285D01*
X86635471Y-73414285D02*
X86706900Y-73485713D01*
X86706900Y-73485713D02*
X86778328Y-73628570D01*
X86778328Y-73628570D02*
X86778328Y-73771427D01*
X86778328Y-73771427D02*
X86706900Y-73914285D01*
X86706900Y-73914285D02*
X86635471Y-73985713D01*
X86635471Y-73985713D02*
X86492614Y-74057142D01*
X86492614Y-74057142D02*
X86206900Y-74128570D01*
X86206900Y-74128570D02*
X85849757Y-74128570D01*
X85849757Y-74128570D02*
X85564042Y-74057142D01*
X85564042Y-74057142D02*
X85421185Y-73985713D01*
X85421185Y-73985713D02*
X85349757Y-73914285D01*
X85349757Y-73914285D02*
X85278328Y-73771427D01*
X85278328Y-72342856D02*
X85278328Y-72199999D01*
X85278328Y-72199999D02*
X85349757Y-72057142D01*
X85349757Y-72057142D02*
X85421185Y-71985714D01*
X85421185Y-71985714D02*
X85564042Y-71914285D01*
X85564042Y-71914285D02*
X85849757Y-71842856D01*
X85849757Y-71842856D02*
X86206900Y-71842856D01*
X86206900Y-71842856D02*
X86492614Y-71914285D01*
X86492614Y-71914285D02*
X86635471Y-71985714D01*
X86635471Y-71985714D02*
X86706900Y-72057142D01*
X86706900Y-72057142D02*
X86778328Y-72199999D01*
X86778328Y-72199999D02*
X86778328Y-72342856D01*
X86778328Y-72342856D02*
X86706900Y-72485714D01*
X86706900Y-72485714D02*
X86635471Y-72557142D01*
X86635471Y-72557142D02*
X86492614Y-72628571D01*
X86492614Y-72628571D02*
X86206900Y-72699999D01*
X86206900Y-72699999D02*
X85849757Y-72699999D01*
X85849757Y-72699999D02*
X85564042Y-72628571D01*
X85564042Y-72628571D02*
X85421185Y-72557142D01*
X85421185Y-72557142D02*
X85349757Y-72485714D01*
X85349757Y-72485714D02*
X85278328Y-72342856D01*
X85278328Y-70914285D02*
X85278328Y-70771428D01*
X85278328Y-70771428D02*
X85349757Y-70628571D01*
X85349757Y-70628571D02*
X85421185Y-70557143D01*
X85421185Y-70557143D02*
X85564042Y-70485714D01*
X85564042Y-70485714D02*
X85849757Y-70414285D01*
X85849757Y-70414285D02*
X86206900Y-70414285D01*
X86206900Y-70414285D02*
X86492614Y-70485714D01*
X86492614Y-70485714D02*
X86635471Y-70557143D01*
X86635471Y-70557143D02*
X86706900Y-70628571D01*
X86706900Y-70628571D02*
X86778328Y-70771428D01*
X86778328Y-70771428D02*
X86778328Y-70914285D01*
X86778328Y-70914285D02*
X86706900Y-71057143D01*
X86706900Y-71057143D02*
X86635471Y-71128571D01*
X86635471Y-71128571D02*
X86492614Y-71200000D01*
X86492614Y-71200000D02*
X86206900Y-71271428D01*
X86206900Y-71271428D02*
X85849757Y-71271428D01*
X85849757Y-71271428D02*
X85564042Y-71200000D01*
X85564042Y-71200000D02*
X85421185Y-71128571D01*
X85421185Y-71128571D02*
X85349757Y-71057143D01*
X85349757Y-71057143D02*
X85278328Y-70914285D01*
X86778328Y-68628572D02*
X85778328Y-68628572D01*
X85921185Y-68628572D02*
X85849757Y-68557143D01*
X85849757Y-68557143D02*
X85778328Y-68414286D01*
X85778328Y-68414286D02*
X85778328Y-68200000D01*
X85778328Y-68200000D02*
X85849757Y-68057143D01*
X85849757Y-68057143D02*
X85992614Y-67985715D01*
X85992614Y-67985715D02*
X86778328Y-67985715D01*
X85992614Y-67985715D02*
X85849757Y-67914286D01*
X85849757Y-67914286D02*
X85778328Y-67771429D01*
X85778328Y-67771429D02*
X85778328Y-67557143D01*
X85778328Y-67557143D02*
X85849757Y-67414286D01*
X85849757Y-67414286D02*
X85992614Y-67342857D01*
X85992614Y-67342857D02*
X86778328Y-67342857D01*
X86778328Y-66628572D02*
X85778328Y-66628572D01*
X85921185Y-66628572D02*
X85849757Y-66557143D01*
X85849757Y-66557143D02*
X85778328Y-66414286D01*
X85778328Y-66414286D02*
X85778328Y-66200000D01*
X85778328Y-66200000D02*
X85849757Y-66057143D01*
X85849757Y-66057143D02*
X85992614Y-65985715D01*
X85992614Y-65985715D02*
X86778328Y-65985715D01*
X85992614Y-65985715D02*
X85849757Y-65914286D01*
X85849757Y-65914286D02*
X85778328Y-65771429D01*
X85778328Y-65771429D02*
X85778328Y-65557143D01*
X85778328Y-65557143D02*
X85849757Y-65414286D01*
X85849757Y-65414286D02*
X85992614Y-65342857D01*
X85992614Y-65342857D02*
X86778328Y-65342857D01*
D11*
X88600000Y-97200000D02*
X87313580Y-97200000D01*
X88600000Y-47200000D02*
X87313580Y-47200000D01*
X87900000Y-97200000D02*
X87900000Y-47200000D01*
X87900000Y-97200000D02*
X87900000Y-47200000D01*
X87900000Y-97200000D02*
X87313579Y-96073496D01*
X87900000Y-97200000D02*
X88486421Y-96073496D01*
X87900000Y-47200000D02*
X88486421Y-48326504D01*
X87900000Y-47200000D02*
X87313579Y-48326504D01*
D10*
X93628573Y-100578328D02*
X92771430Y-100578328D01*
X93200001Y-100578328D02*
X93200001Y-99078328D01*
X93200001Y-99078328D02*
X93057144Y-99292614D01*
X93057144Y-99292614D02*
X92914287Y-99435471D01*
X92914287Y-99435471D02*
X92771430Y-99506900D01*
X94557144Y-99078328D02*
X94700001Y-99078328D01*
X94700001Y-99078328D02*
X94842858Y-99149757D01*
X94842858Y-99149757D02*
X94914287Y-99221185D01*
X94914287Y-99221185D02*
X94985715Y-99364042D01*
X94985715Y-99364042D02*
X95057144Y-99649757D01*
X95057144Y-99649757D02*
X95057144Y-100006900D01*
X95057144Y-100006900D02*
X94985715Y-100292614D01*
X94985715Y-100292614D02*
X94914287Y-100435471D01*
X94914287Y-100435471D02*
X94842858Y-100506900D01*
X94842858Y-100506900D02*
X94700001Y-100578328D01*
X94700001Y-100578328D02*
X94557144Y-100578328D01*
X94557144Y-100578328D02*
X94414287Y-100506900D01*
X94414287Y-100506900D02*
X94342858Y-100435471D01*
X94342858Y-100435471D02*
X94271429Y-100292614D01*
X94271429Y-100292614D02*
X94200001Y-100006900D01*
X94200001Y-100006900D02*
X94200001Y-99649757D01*
X94200001Y-99649757D02*
X94271429Y-99364042D01*
X94271429Y-99364042D02*
X94342858Y-99221185D01*
X94342858Y-99221185D02*
X94414287Y-99149757D01*
X94414287Y-99149757D02*
X94557144Y-99078328D01*
X95771429Y-100506900D02*
X95771429Y-100578328D01*
X95771429Y-100578328D02*
X95700000Y-100721185D01*
X95700000Y-100721185D02*
X95628572Y-100792614D01*
X96700001Y-99078328D02*
X96842858Y-99078328D01*
X96842858Y-99078328D02*
X96985715Y-99149757D01*
X96985715Y-99149757D02*
X97057144Y-99221185D01*
X97057144Y-99221185D02*
X97128572Y-99364042D01*
X97128572Y-99364042D02*
X97200001Y-99649757D01*
X97200001Y-99649757D02*
X97200001Y-100006900D01*
X97200001Y-100006900D02*
X97128572Y-100292614D01*
X97128572Y-100292614D02*
X97057144Y-100435471D01*
X97057144Y-100435471D02*
X96985715Y-100506900D01*
X96985715Y-100506900D02*
X96842858Y-100578328D01*
X96842858Y-100578328D02*
X96700001Y-100578328D01*
X96700001Y-100578328D02*
X96557144Y-100506900D01*
X96557144Y-100506900D02*
X96485715Y-100435471D01*
X96485715Y-100435471D02*
X96414286Y-100292614D01*
X96414286Y-100292614D02*
X96342858Y-100006900D01*
X96342858Y-100006900D02*
X96342858Y-99649757D01*
X96342858Y-99649757D02*
X96414286Y-99364042D01*
X96414286Y-99364042D02*
X96485715Y-99221185D01*
X96485715Y-99221185D02*
X96557144Y-99149757D01*
X96557144Y-99149757D02*
X96700001Y-99078328D01*
X98128572Y-99078328D02*
X98271429Y-99078328D01*
X98271429Y-99078328D02*
X98414286Y-99149757D01*
X98414286Y-99149757D02*
X98485715Y-99221185D01*
X98485715Y-99221185D02*
X98557143Y-99364042D01*
X98557143Y-99364042D02*
X98628572Y-99649757D01*
X98628572Y-99649757D02*
X98628572Y-100006900D01*
X98628572Y-100006900D02*
X98557143Y-100292614D01*
X98557143Y-100292614D02*
X98485715Y-100435471D01*
X98485715Y-100435471D02*
X98414286Y-100506900D01*
X98414286Y-100506900D02*
X98271429Y-100578328D01*
X98271429Y-100578328D02*
X98128572Y-100578328D01*
X98128572Y-100578328D02*
X97985715Y-100506900D01*
X97985715Y-100506900D02*
X97914286Y-100435471D01*
X97914286Y-100435471D02*
X97842857Y-100292614D01*
X97842857Y-100292614D02*
X97771429Y-100006900D01*
X97771429Y-100006900D02*
X97771429Y-99649757D01*
X97771429Y-99649757D02*
X97842857Y-99364042D01*
X97842857Y-99364042D02*
X97914286Y-99221185D01*
X97914286Y-99221185D02*
X97985715Y-99149757D01*
X97985715Y-99149757D02*
X98128572Y-99078328D01*
X99557143Y-99078328D02*
X99700000Y-99078328D01*
X99700000Y-99078328D02*
X99842857Y-99149757D01*
X99842857Y-99149757D02*
X99914286Y-99221185D01*
X99914286Y-99221185D02*
X99985714Y-99364042D01*
X99985714Y-99364042D02*
X100057143Y-99649757D01*
X100057143Y-99649757D02*
X100057143Y-100006900D01*
X100057143Y-100006900D02*
X99985714Y-100292614D01*
X99985714Y-100292614D02*
X99914286Y-100435471D01*
X99914286Y-100435471D02*
X99842857Y-100506900D01*
X99842857Y-100506900D02*
X99700000Y-100578328D01*
X99700000Y-100578328D02*
X99557143Y-100578328D01*
X99557143Y-100578328D02*
X99414286Y-100506900D01*
X99414286Y-100506900D02*
X99342857Y-100435471D01*
X99342857Y-100435471D02*
X99271428Y-100292614D01*
X99271428Y-100292614D02*
X99200000Y-100006900D01*
X99200000Y-100006900D02*
X99200000Y-99649757D01*
X99200000Y-99649757D02*
X99271428Y-99364042D01*
X99271428Y-99364042D02*
X99342857Y-99221185D01*
X99342857Y-99221185D02*
X99414286Y-99149757D01*
X99414286Y-99149757D02*
X99557143Y-99078328D01*
X100985714Y-99078328D02*
X101128571Y-99078328D01*
X101128571Y-99078328D02*
X101271428Y-99149757D01*
X101271428Y-99149757D02*
X101342857Y-99221185D01*
X101342857Y-99221185D02*
X101414285Y-99364042D01*
X101414285Y-99364042D02*
X101485714Y-99649757D01*
X101485714Y-99649757D02*
X101485714Y-100006900D01*
X101485714Y-100006900D02*
X101414285Y-100292614D01*
X101414285Y-100292614D02*
X101342857Y-100435471D01*
X101342857Y-100435471D02*
X101271428Y-100506900D01*
X101271428Y-100506900D02*
X101128571Y-100578328D01*
X101128571Y-100578328D02*
X100985714Y-100578328D01*
X100985714Y-100578328D02*
X100842857Y-100506900D01*
X100842857Y-100506900D02*
X100771428Y-100435471D01*
X100771428Y-100435471D02*
X100699999Y-100292614D01*
X100699999Y-100292614D02*
X100628571Y-100006900D01*
X100628571Y-100006900D02*
X100628571Y-99649757D01*
X100628571Y-99649757D02*
X100699999Y-99364042D01*
X100699999Y-99364042D02*
X100771428Y-99221185D01*
X100771428Y-99221185D02*
X100842857Y-99149757D01*
X100842857Y-99149757D02*
X100985714Y-99078328D01*
X103271427Y-100578328D02*
X103271427Y-99578328D01*
X103271427Y-99721185D02*
X103342856Y-99649757D01*
X103342856Y-99649757D02*
X103485713Y-99578328D01*
X103485713Y-99578328D02*
X103699999Y-99578328D01*
X103699999Y-99578328D02*
X103842856Y-99649757D01*
X103842856Y-99649757D02*
X103914285Y-99792614D01*
X103914285Y-99792614D02*
X103914285Y-100578328D01*
X103914285Y-99792614D02*
X103985713Y-99649757D01*
X103985713Y-99649757D02*
X104128570Y-99578328D01*
X104128570Y-99578328D02*
X104342856Y-99578328D01*
X104342856Y-99578328D02*
X104485713Y-99649757D01*
X104485713Y-99649757D02*
X104557142Y-99792614D01*
X104557142Y-99792614D02*
X104557142Y-100578328D01*
X105271427Y-100578328D02*
X105271427Y-99578328D01*
X105271427Y-99721185D02*
X105342856Y-99649757D01*
X105342856Y-99649757D02*
X105485713Y-99578328D01*
X105485713Y-99578328D02*
X105699999Y-99578328D01*
X105699999Y-99578328D02*
X105842856Y-99649757D01*
X105842856Y-99649757D02*
X105914285Y-99792614D01*
X105914285Y-99792614D02*
X105914285Y-100578328D01*
X105914285Y-99792614D02*
X105985713Y-99649757D01*
X105985713Y-99649757D02*
X106128570Y-99578328D01*
X106128570Y-99578328D02*
X106342856Y-99578328D01*
X106342856Y-99578328D02*
X106485713Y-99649757D01*
X106485713Y-99649757D02*
X106557142Y-99792614D01*
X106557142Y-99792614D02*
X106557142Y-100578328D01*
D11*
X94700000Y-97700000D02*
X94700000Y-102286420D01*
X104700000Y-97700000D02*
X104700000Y-102286420D01*
X94700000Y-101700000D02*
X104700000Y-101700000D01*
X94700000Y-101700000D02*
X104700000Y-101700000D01*
X94700000Y-101700000D02*
X95826504Y-101113579D01*
X94700000Y-101700000D02*
X95826504Y-102286421D01*
X104700000Y-101700000D02*
X103573496Y-102286421D01*
X104700000Y-101700000D02*
X103573496Y-101113579D01*
D10*
X147628573Y-100578328D02*
X146771430Y-100578328D01*
X147200001Y-100578328D02*
X147200001Y-99078328D01*
X147200001Y-99078328D02*
X147057144Y-99292614D01*
X147057144Y-99292614D02*
X146914287Y-99435471D01*
X146914287Y-99435471D02*
X146771430Y-99506900D01*
X148557144Y-99078328D02*
X148700001Y-99078328D01*
X148700001Y-99078328D02*
X148842858Y-99149757D01*
X148842858Y-99149757D02*
X148914287Y-99221185D01*
X148914287Y-99221185D02*
X148985715Y-99364042D01*
X148985715Y-99364042D02*
X149057144Y-99649757D01*
X149057144Y-99649757D02*
X149057144Y-100006900D01*
X149057144Y-100006900D02*
X148985715Y-100292614D01*
X148985715Y-100292614D02*
X148914287Y-100435471D01*
X148914287Y-100435471D02*
X148842858Y-100506900D01*
X148842858Y-100506900D02*
X148700001Y-100578328D01*
X148700001Y-100578328D02*
X148557144Y-100578328D01*
X148557144Y-100578328D02*
X148414287Y-100506900D01*
X148414287Y-100506900D02*
X148342858Y-100435471D01*
X148342858Y-100435471D02*
X148271429Y-100292614D01*
X148271429Y-100292614D02*
X148200001Y-100006900D01*
X148200001Y-100006900D02*
X148200001Y-99649757D01*
X148200001Y-99649757D02*
X148271429Y-99364042D01*
X148271429Y-99364042D02*
X148342858Y-99221185D01*
X148342858Y-99221185D02*
X148414287Y-99149757D01*
X148414287Y-99149757D02*
X148557144Y-99078328D01*
X149771429Y-100506900D02*
X149771429Y-100578328D01*
X149771429Y-100578328D02*
X149700000Y-100721185D01*
X149700000Y-100721185D02*
X149628572Y-100792614D01*
X150700001Y-99078328D02*
X150842858Y-99078328D01*
X150842858Y-99078328D02*
X150985715Y-99149757D01*
X150985715Y-99149757D02*
X151057144Y-99221185D01*
X151057144Y-99221185D02*
X151128572Y-99364042D01*
X151128572Y-99364042D02*
X151200001Y-99649757D01*
X151200001Y-99649757D02*
X151200001Y-100006900D01*
X151200001Y-100006900D02*
X151128572Y-100292614D01*
X151128572Y-100292614D02*
X151057144Y-100435471D01*
X151057144Y-100435471D02*
X150985715Y-100506900D01*
X150985715Y-100506900D02*
X150842858Y-100578328D01*
X150842858Y-100578328D02*
X150700001Y-100578328D01*
X150700001Y-100578328D02*
X150557144Y-100506900D01*
X150557144Y-100506900D02*
X150485715Y-100435471D01*
X150485715Y-100435471D02*
X150414286Y-100292614D01*
X150414286Y-100292614D02*
X150342858Y-100006900D01*
X150342858Y-100006900D02*
X150342858Y-99649757D01*
X150342858Y-99649757D02*
X150414286Y-99364042D01*
X150414286Y-99364042D02*
X150485715Y-99221185D01*
X150485715Y-99221185D02*
X150557144Y-99149757D01*
X150557144Y-99149757D02*
X150700001Y-99078328D01*
X152128572Y-99078328D02*
X152271429Y-99078328D01*
X152271429Y-99078328D02*
X152414286Y-99149757D01*
X152414286Y-99149757D02*
X152485715Y-99221185D01*
X152485715Y-99221185D02*
X152557143Y-99364042D01*
X152557143Y-99364042D02*
X152628572Y-99649757D01*
X152628572Y-99649757D02*
X152628572Y-100006900D01*
X152628572Y-100006900D02*
X152557143Y-100292614D01*
X152557143Y-100292614D02*
X152485715Y-100435471D01*
X152485715Y-100435471D02*
X152414286Y-100506900D01*
X152414286Y-100506900D02*
X152271429Y-100578328D01*
X152271429Y-100578328D02*
X152128572Y-100578328D01*
X152128572Y-100578328D02*
X151985715Y-100506900D01*
X151985715Y-100506900D02*
X151914286Y-100435471D01*
X151914286Y-100435471D02*
X151842857Y-100292614D01*
X151842857Y-100292614D02*
X151771429Y-100006900D01*
X151771429Y-100006900D02*
X151771429Y-99649757D01*
X151771429Y-99649757D02*
X151842857Y-99364042D01*
X151842857Y-99364042D02*
X151914286Y-99221185D01*
X151914286Y-99221185D02*
X151985715Y-99149757D01*
X151985715Y-99149757D02*
X152128572Y-99078328D01*
X153557143Y-99078328D02*
X153700000Y-99078328D01*
X153700000Y-99078328D02*
X153842857Y-99149757D01*
X153842857Y-99149757D02*
X153914286Y-99221185D01*
X153914286Y-99221185D02*
X153985714Y-99364042D01*
X153985714Y-99364042D02*
X154057143Y-99649757D01*
X154057143Y-99649757D02*
X154057143Y-100006900D01*
X154057143Y-100006900D02*
X153985714Y-100292614D01*
X153985714Y-100292614D02*
X153914286Y-100435471D01*
X153914286Y-100435471D02*
X153842857Y-100506900D01*
X153842857Y-100506900D02*
X153700000Y-100578328D01*
X153700000Y-100578328D02*
X153557143Y-100578328D01*
X153557143Y-100578328D02*
X153414286Y-100506900D01*
X153414286Y-100506900D02*
X153342857Y-100435471D01*
X153342857Y-100435471D02*
X153271428Y-100292614D01*
X153271428Y-100292614D02*
X153200000Y-100006900D01*
X153200000Y-100006900D02*
X153200000Y-99649757D01*
X153200000Y-99649757D02*
X153271428Y-99364042D01*
X153271428Y-99364042D02*
X153342857Y-99221185D01*
X153342857Y-99221185D02*
X153414286Y-99149757D01*
X153414286Y-99149757D02*
X153557143Y-99078328D01*
X154985714Y-99078328D02*
X155128571Y-99078328D01*
X155128571Y-99078328D02*
X155271428Y-99149757D01*
X155271428Y-99149757D02*
X155342857Y-99221185D01*
X155342857Y-99221185D02*
X155414285Y-99364042D01*
X155414285Y-99364042D02*
X155485714Y-99649757D01*
X155485714Y-99649757D02*
X155485714Y-100006900D01*
X155485714Y-100006900D02*
X155414285Y-100292614D01*
X155414285Y-100292614D02*
X155342857Y-100435471D01*
X155342857Y-100435471D02*
X155271428Y-100506900D01*
X155271428Y-100506900D02*
X155128571Y-100578328D01*
X155128571Y-100578328D02*
X154985714Y-100578328D01*
X154985714Y-100578328D02*
X154842857Y-100506900D01*
X154842857Y-100506900D02*
X154771428Y-100435471D01*
X154771428Y-100435471D02*
X154699999Y-100292614D01*
X154699999Y-100292614D02*
X154628571Y-100006900D01*
X154628571Y-100006900D02*
X154628571Y-99649757D01*
X154628571Y-99649757D02*
X154699999Y-99364042D01*
X154699999Y-99364042D02*
X154771428Y-99221185D01*
X154771428Y-99221185D02*
X154842857Y-99149757D01*
X154842857Y-99149757D02*
X154985714Y-99078328D01*
X157271427Y-100578328D02*
X157271427Y-99578328D01*
X157271427Y-99721185D02*
X157342856Y-99649757D01*
X157342856Y-99649757D02*
X157485713Y-99578328D01*
X157485713Y-99578328D02*
X157699999Y-99578328D01*
X157699999Y-99578328D02*
X157842856Y-99649757D01*
X157842856Y-99649757D02*
X157914285Y-99792614D01*
X157914285Y-99792614D02*
X157914285Y-100578328D01*
X157914285Y-99792614D02*
X157985713Y-99649757D01*
X157985713Y-99649757D02*
X158128570Y-99578328D01*
X158128570Y-99578328D02*
X158342856Y-99578328D01*
X158342856Y-99578328D02*
X158485713Y-99649757D01*
X158485713Y-99649757D02*
X158557142Y-99792614D01*
X158557142Y-99792614D02*
X158557142Y-100578328D01*
X159271427Y-100578328D02*
X159271427Y-99578328D01*
X159271427Y-99721185D02*
X159342856Y-99649757D01*
X159342856Y-99649757D02*
X159485713Y-99578328D01*
X159485713Y-99578328D02*
X159699999Y-99578328D01*
X159699999Y-99578328D02*
X159842856Y-99649757D01*
X159842856Y-99649757D02*
X159914285Y-99792614D01*
X159914285Y-99792614D02*
X159914285Y-100578328D01*
X159914285Y-99792614D02*
X159985713Y-99649757D01*
X159985713Y-99649757D02*
X160128570Y-99578328D01*
X160128570Y-99578328D02*
X160342856Y-99578328D01*
X160342856Y-99578328D02*
X160485713Y-99649757D01*
X160485713Y-99649757D02*
X160557142Y-99792614D01*
X160557142Y-99792614D02*
X160557142Y-100578328D01*
D11*
X158700000Y-97700000D02*
X158700000Y-102286420D01*
X148700000Y-97700000D02*
X148700000Y-102286420D01*
X158700000Y-101700000D02*
X148700000Y-101700000D01*
X158700000Y-101700000D02*
X148700000Y-101700000D01*
X158700000Y-101700000D02*
X157573496Y-102286421D01*
X158700000Y-101700000D02*
X157573496Y-101113579D01*
X148700000Y-101700000D02*
X149826504Y-101113579D01*
X148700000Y-101700000D02*
X149826504Y-102286421D01*
D10*
X97128573Y-104978328D02*
X96271430Y-104978328D01*
X96700001Y-104978328D02*
X96700001Y-103478328D01*
X96700001Y-103478328D02*
X96557144Y-103692614D01*
X96557144Y-103692614D02*
X96414287Y-103835471D01*
X96414287Y-103835471D02*
X96271430Y-103906900D01*
X97628572Y-103478328D02*
X98628572Y-103478328D01*
X98628572Y-103478328D02*
X97985715Y-104978328D01*
X99271429Y-104906900D02*
X99271429Y-104978328D01*
X99271429Y-104978328D02*
X99200000Y-105121185D01*
X99200000Y-105121185D02*
X99128572Y-105192614D01*
X100200001Y-103478328D02*
X100342858Y-103478328D01*
X100342858Y-103478328D02*
X100485715Y-103549757D01*
X100485715Y-103549757D02*
X100557144Y-103621185D01*
X100557144Y-103621185D02*
X100628572Y-103764042D01*
X100628572Y-103764042D02*
X100700001Y-104049757D01*
X100700001Y-104049757D02*
X100700001Y-104406900D01*
X100700001Y-104406900D02*
X100628572Y-104692614D01*
X100628572Y-104692614D02*
X100557144Y-104835471D01*
X100557144Y-104835471D02*
X100485715Y-104906900D01*
X100485715Y-104906900D02*
X100342858Y-104978328D01*
X100342858Y-104978328D02*
X100200001Y-104978328D01*
X100200001Y-104978328D02*
X100057144Y-104906900D01*
X100057144Y-104906900D02*
X99985715Y-104835471D01*
X99985715Y-104835471D02*
X99914286Y-104692614D01*
X99914286Y-104692614D02*
X99842858Y-104406900D01*
X99842858Y-104406900D02*
X99842858Y-104049757D01*
X99842858Y-104049757D02*
X99914286Y-103764042D01*
X99914286Y-103764042D02*
X99985715Y-103621185D01*
X99985715Y-103621185D02*
X100057144Y-103549757D01*
X100057144Y-103549757D02*
X100200001Y-103478328D01*
X101628572Y-103478328D02*
X101771429Y-103478328D01*
X101771429Y-103478328D02*
X101914286Y-103549757D01*
X101914286Y-103549757D02*
X101985715Y-103621185D01*
X101985715Y-103621185D02*
X102057143Y-103764042D01*
X102057143Y-103764042D02*
X102128572Y-104049757D01*
X102128572Y-104049757D02*
X102128572Y-104406900D01*
X102128572Y-104406900D02*
X102057143Y-104692614D01*
X102057143Y-104692614D02*
X101985715Y-104835471D01*
X101985715Y-104835471D02*
X101914286Y-104906900D01*
X101914286Y-104906900D02*
X101771429Y-104978328D01*
X101771429Y-104978328D02*
X101628572Y-104978328D01*
X101628572Y-104978328D02*
X101485715Y-104906900D01*
X101485715Y-104906900D02*
X101414286Y-104835471D01*
X101414286Y-104835471D02*
X101342857Y-104692614D01*
X101342857Y-104692614D02*
X101271429Y-104406900D01*
X101271429Y-104406900D02*
X101271429Y-104049757D01*
X101271429Y-104049757D02*
X101342857Y-103764042D01*
X101342857Y-103764042D02*
X101414286Y-103621185D01*
X101414286Y-103621185D02*
X101485715Y-103549757D01*
X101485715Y-103549757D02*
X101628572Y-103478328D01*
X103057143Y-103478328D02*
X103200000Y-103478328D01*
X103200000Y-103478328D02*
X103342857Y-103549757D01*
X103342857Y-103549757D02*
X103414286Y-103621185D01*
X103414286Y-103621185D02*
X103485714Y-103764042D01*
X103485714Y-103764042D02*
X103557143Y-104049757D01*
X103557143Y-104049757D02*
X103557143Y-104406900D01*
X103557143Y-104406900D02*
X103485714Y-104692614D01*
X103485714Y-104692614D02*
X103414286Y-104835471D01*
X103414286Y-104835471D02*
X103342857Y-104906900D01*
X103342857Y-104906900D02*
X103200000Y-104978328D01*
X103200000Y-104978328D02*
X103057143Y-104978328D01*
X103057143Y-104978328D02*
X102914286Y-104906900D01*
X102914286Y-104906900D02*
X102842857Y-104835471D01*
X102842857Y-104835471D02*
X102771428Y-104692614D01*
X102771428Y-104692614D02*
X102700000Y-104406900D01*
X102700000Y-104406900D02*
X102700000Y-104049757D01*
X102700000Y-104049757D02*
X102771428Y-103764042D01*
X102771428Y-103764042D02*
X102842857Y-103621185D01*
X102842857Y-103621185D02*
X102914286Y-103549757D01*
X102914286Y-103549757D02*
X103057143Y-103478328D01*
X104485714Y-103478328D02*
X104628571Y-103478328D01*
X104628571Y-103478328D02*
X104771428Y-103549757D01*
X104771428Y-103549757D02*
X104842857Y-103621185D01*
X104842857Y-103621185D02*
X104914285Y-103764042D01*
X104914285Y-103764042D02*
X104985714Y-104049757D01*
X104985714Y-104049757D02*
X104985714Y-104406900D01*
X104985714Y-104406900D02*
X104914285Y-104692614D01*
X104914285Y-104692614D02*
X104842857Y-104835471D01*
X104842857Y-104835471D02*
X104771428Y-104906900D01*
X104771428Y-104906900D02*
X104628571Y-104978328D01*
X104628571Y-104978328D02*
X104485714Y-104978328D01*
X104485714Y-104978328D02*
X104342857Y-104906900D01*
X104342857Y-104906900D02*
X104271428Y-104835471D01*
X104271428Y-104835471D02*
X104199999Y-104692614D01*
X104199999Y-104692614D02*
X104128571Y-104406900D01*
X104128571Y-104406900D02*
X104128571Y-104049757D01*
X104128571Y-104049757D02*
X104199999Y-103764042D01*
X104199999Y-103764042D02*
X104271428Y-103621185D01*
X104271428Y-103621185D02*
X104342857Y-103549757D01*
X104342857Y-103549757D02*
X104485714Y-103478328D01*
X106771427Y-104978328D02*
X106771427Y-103978328D01*
X106771427Y-104121185D02*
X106842856Y-104049757D01*
X106842856Y-104049757D02*
X106985713Y-103978328D01*
X106985713Y-103978328D02*
X107199999Y-103978328D01*
X107199999Y-103978328D02*
X107342856Y-104049757D01*
X107342856Y-104049757D02*
X107414285Y-104192614D01*
X107414285Y-104192614D02*
X107414285Y-104978328D01*
X107414285Y-104192614D02*
X107485713Y-104049757D01*
X107485713Y-104049757D02*
X107628570Y-103978328D01*
X107628570Y-103978328D02*
X107842856Y-103978328D01*
X107842856Y-103978328D02*
X107985713Y-104049757D01*
X107985713Y-104049757D02*
X108057142Y-104192614D01*
X108057142Y-104192614D02*
X108057142Y-104978328D01*
X108771427Y-104978328D02*
X108771427Y-103978328D01*
X108771427Y-104121185D02*
X108842856Y-104049757D01*
X108842856Y-104049757D02*
X108985713Y-103978328D01*
X108985713Y-103978328D02*
X109199999Y-103978328D01*
X109199999Y-103978328D02*
X109342856Y-104049757D01*
X109342856Y-104049757D02*
X109414285Y-104192614D01*
X109414285Y-104192614D02*
X109414285Y-104978328D01*
X109414285Y-104192614D02*
X109485713Y-104049757D01*
X109485713Y-104049757D02*
X109628570Y-103978328D01*
X109628570Y-103978328D02*
X109842856Y-103978328D01*
X109842856Y-103978328D02*
X109985713Y-104049757D01*
X109985713Y-104049757D02*
X110057142Y-104192614D01*
X110057142Y-104192614D02*
X110057142Y-104978328D01*
D11*
X94700000Y-103400000D02*
X94700000Y-106686420D01*
X111700000Y-103400000D02*
X111700000Y-106686420D01*
X94700000Y-106100000D02*
X111700000Y-106100000D01*
X94700000Y-106100000D02*
X111700000Y-106100000D01*
X94700000Y-106100000D02*
X95826504Y-105513579D01*
X94700000Y-106100000D02*
X95826504Y-106686421D01*
X111700000Y-106100000D02*
X110573496Y-106686421D01*
X111700000Y-106100000D02*
X110573496Y-105513579D01*
D10*
X91478328Y-94771426D02*
X91478328Y-95628569D01*
X91478328Y-95199998D02*
X89978328Y-95199998D01*
X89978328Y-95199998D02*
X90192614Y-95342855D01*
X90192614Y-95342855D02*
X90335471Y-95485712D01*
X90335471Y-95485712D02*
X90406900Y-95628569D01*
X89978328Y-94271427D02*
X89978328Y-93271427D01*
X89978328Y-93271427D02*
X91478328Y-93914284D01*
X91406900Y-92628570D02*
X91478328Y-92628570D01*
X91478328Y-92628570D02*
X91621185Y-92699999D01*
X91621185Y-92699999D02*
X91692614Y-92771427D01*
X89978328Y-91699998D02*
X89978328Y-91557141D01*
X89978328Y-91557141D02*
X90049757Y-91414284D01*
X90049757Y-91414284D02*
X90121185Y-91342856D01*
X90121185Y-91342856D02*
X90264042Y-91271427D01*
X90264042Y-91271427D02*
X90549757Y-91199998D01*
X90549757Y-91199998D02*
X90906900Y-91199998D01*
X90906900Y-91199998D02*
X91192614Y-91271427D01*
X91192614Y-91271427D02*
X91335471Y-91342856D01*
X91335471Y-91342856D02*
X91406900Y-91414284D01*
X91406900Y-91414284D02*
X91478328Y-91557141D01*
X91478328Y-91557141D02*
X91478328Y-91699998D01*
X91478328Y-91699998D02*
X91406900Y-91842856D01*
X91406900Y-91842856D02*
X91335471Y-91914284D01*
X91335471Y-91914284D02*
X91192614Y-91985713D01*
X91192614Y-91985713D02*
X90906900Y-92057141D01*
X90906900Y-92057141D02*
X90549757Y-92057141D01*
X90549757Y-92057141D02*
X90264042Y-91985713D01*
X90264042Y-91985713D02*
X90121185Y-91914284D01*
X90121185Y-91914284D02*
X90049757Y-91842856D01*
X90049757Y-91842856D02*
X89978328Y-91699998D01*
X89978328Y-90271427D02*
X89978328Y-90128570D01*
X89978328Y-90128570D02*
X90049757Y-89985713D01*
X90049757Y-89985713D02*
X90121185Y-89914285D01*
X90121185Y-89914285D02*
X90264042Y-89842856D01*
X90264042Y-89842856D02*
X90549757Y-89771427D01*
X90549757Y-89771427D02*
X90906900Y-89771427D01*
X90906900Y-89771427D02*
X91192614Y-89842856D01*
X91192614Y-89842856D02*
X91335471Y-89914285D01*
X91335471Y-89914285D02*
X91406900Y-89985713D01*
X91406900Y-89985713D02*
X91478328Y-90128570D01*
X91478328Y-90128570D02*
X91478328Y-90271427D01*
X91478328Y-90271427D02*
X91406900Y-90414285D01*
X91406900Y-90414285D02*
X91335471Y-90485713D01*
X91335471Y-90485713D02*
X91192614Y-90557142D01*
X91192614Y-90557142D02*
X90906900Y-90628570D01*
X90906900Y-90628570D02*
X90549757Y-90628570D01*
X90549757Y-90628570D02*
X90264042Y-90557142D01*
X90264042Y-90557142D02*
X90121185Y-90485713D01*
X90121185Y-90485713D02*
X90049757Y-90414285D01*
X90049757Y-90414285D02*
X89978328Y-90271427D01*
X89978328Y-88842856D02*
X89978328Y-88699999D01*
X89978328Y-88699999D02*
X90049757Y-88557142D01*
X90049757Y-88557142D02*
X90121185Y-88485714D01*
X90121185Y-88485714D02*
X90264042Y-88414285D01*
X90264042Y-88414285D02*
X90549757Y-88342856D01*
X90549757Y-88342856D02*
X90906900Y-88342856D01*
X90906900Y-88342856D02*
X91192614Y-88414285D01*
X91192614Y-88414285D02*
X91335471Y-88485714D01*
X91335471Y-88485714D02*
X91406900Y-88557142D01*
X91406900Y-88557142D02*
X91478328Y-88699999D01*
X91478328Y-88699999D02*
X91478328Y-88842856D01*
X91478328Y-88842856D02*
X91406900Y-88985714D01*
X91406900Y-88985714D02*
X91335471Y-89057142D01*
X91335471Y-89057142D02*
X91192614Y-89128571D01*
X91192614Y-89128571D02*
X90906900Y-89199999D01*
X90906900Y-89199999D02*
X90549757Y-89199999D01*
X90549757Y-89199999D02*
X90264042Y-89128571D01*
X90264042Y-89128571D02*
X90121185Y-89057142D01*
X90121185Y-89057142D02*
X90049757Y-88985714D01*
X90049757Y-88985714D02*
X89978328Y-88842856D01*
X89978328Y-87414285D02*
X89978328Y-87271428D01*
X89978328Y-87271428D02*
X90049757Y-87128571D01*
X90049757Y-87128571D02*
X90121185Y-87057143D01*
X90121185Y-87057143D02*
X90264042Y-86985714D01*
X90264042Y-86985714D02*
X90549757Y-86914285D01*
X90549757Y-86914285D02*
X90906900Y-86914285D01*
X90906900Y-86914285D02*
X91192614Y-86985714D01*
X91192614Y-86985714D02*
X91335471Y-87057143D01*
X91335471Y-87057143D02*
X91406900Y-87128571D01*
X91406900Y-87128571D02*
X91478328Y-87271428D01*
X91478328Y-87271428D02*
X91478328Y-87414285D01*
X91478328Y-87414285D02*
X91406900Y-87557143D01*
X91406900Y-87557143D02*
X91335471Y-87628571D01*
X91335471Y-87628571D02*
X91192614Y-87700000D01*
X91192614Y-87700000D02*
X90906900Y-87771428D01*
X90906900Y-87771428D02*
X90549757Y-87771428D01*
X90549757Y-87771428D02*
X90264042Y-87700000D01*
X90264042Y-87700000D02*
X90121185Y-87628571D01*
X90121185Y-87628571D02*
X90049757Y-87557143D01*
X90049757Y-87557143D02*
X89978328Y-87414285D01*
X91478328Y-85128572D02*
X90478328Y-85128572D01*
X90621185Y-85128572D02*
X90549757Y-85057143D01*
X90549757Y-85057143D02*
X90478328Y-84914286D01*
X90478328Y-84914286D02*
X90478328Y-84700000D01*
X90478328Y-84700000D02*
X90549757Y-84557143D01*
X90549757Y-84557143D02*
X90692614Y-84485715D01*
X90692614Y-84485715D02*
X91478328Y-84485715D01*
X90692614Y-84485715D02*
X90549757Y-84414286D01*
X90549757Y-84414286D02*
X90478328Y-84271429D01*
X90478328Y-84271429D02*
X90478328Y-84057143D01*
X90478328Y-84057143D02*
X90549757Y-83914286D01*
X90549757Y-83914286D02*
X90692614Y-83842857D01*
X90692614Y-83842857D02*
X91478328Y-83842857D01*
X91478328Y-83128572D02*
X90478328Y-83128572D01*
X90621185Y-83128572D02*
X90549757Y-83057143D01*
X90549757Y-83057143D02*
X90478328Y-82914286D01*
X90478328Y-82914286D02*
X90478328Y-82700000D01*
X90478328Y-82700000D02*
X90549757Y-82557143D01*
X90549757Y-82557143D02*
X90692614Y-82485715D01*
X90692614Y-82485715D02*
X91478328Y-82485715D01*
X90692614Y-82485715D02*
X90549757Y-82414286D01*
X90549757Y-82414286D02*
X90478328Y-82271429D01*
X90478328Y-82271429D02*
X90478328Y-82057143D01*
X90478328Y-82057143D02*
X90549757Y-81914286D01*
X90549757Y-81914286D02*
X90692614Y-81842857D01*
X90692614Y-81842857D02*
X91478328Y-81842857D01*
D11*
X94200000Y-97200000D02*
X92013580Y-97200000D01*
X94200000Y-80200000D02*
X92013580Y-80200000D01*
X92600000Y-97200000D02*
X92600000Y-80200000D01*
X92600000Y-97200000D02*
X92600000Y-80200000D01*
X92600000Y-97200000D02*
X92013579Y-96073496D01*
X92600000Y-97200000D02*
X93186421Y-96073496D01*
X92600000Y-80200000D02*
X93186421Y-81326504D01*
X92600000Y-80200000D02*
X92013579Y-81326504D01*
M02*
